<?xml version="1.0" encoding="UTF-8" standalone="no"?>
<!-- Created with Inkscape (http://www.inkscape.org/) -->

<svg
   xmlns:dc="http://purl.org/dc/elements/1.1/"
   xmlns:cc="http://creativecommons.org/ns#"
   xmlns:rdf="http://www.w3.org/1999/02/22-rdf-syntax-ns#"
   xmlns:svg="http://www.w3.org/2000/svg"
   xmlns="http://www.w3.org/2000/svg"
   xmlns:sodipodi="http://sodipodi.sourceforge.net/DTD/sodipodi-0.dtd"
   xmlns:inkscape="http://www.inkscape.org/namespaces/inkscape"
   width="1052.3622047"
   height="744.09448819"
   id="svg2"
   version="1.1"
   inkscape:version="0.48.4 r9939"
   sodipodi:docname="border design.svg">
  <defs
     id="defs4" />
  <sodipodi:namedview
     id="base"
     pagecolor="#ffffff"
     bordercolor="#666666"
     borderopacity="1.0"
     inkscape:pageopacity="0.0"
     inkscape:pageshadow="2"
     inkscape:zoom="0.53033009"
     inkscape:cx="661.98483"
     inkscape:cy="400.20567"
     inkscape:document-units="px"
     inkscape:current-layer="layer1"
     showgrid="true"
     inkscape:snap-global="false"
     inkscape:window-width="1535"
     inkscape:window-height="666"
     inkscape:window-x="57"
     inkscape:window-y="30"
     inkscape:window-maximized="0">
    <inkscape:grid
       type="xygrid"
       id="grid3755"
       empspacing="20"
       visible="true"
       enabled="true"
       snapvisiblegridlinesonly="true" />
  </sodipodi:namedview>
  <metadata
     id="metadata7">
    <rdf:RDF>
      <cc:Work
         rdf:about="">
        <dc:format>image/svg+xml</dc:format>
        <dc:type
           rdf:resource="http://purl.org/dc/dcmitype/StillImage" />
        <dc:title></dc:title>
      </cc:Work>
    </rdf:RDF>
  </metadata>
  <g
     inkscape:label="Layer 1"
     inkscape:groupmode="layer"
     id="layer1">
    <g
       id="g3902">
      <path
         inkscape:connector-curvature="0"
         id="path3794"
         d="m 313.3242,325.28125 c -96.96467,17.65445 -200.90419,18.07883 -300.125003,18.90625 99.138863,-0.97297 203.426883,1.61742 299.968753,18.625 22.60089,-14.84678 37.69223,-16.76169 50.90625,-18.53125 -13.13429,-2.20245 -28.15558,-4.05415 -50.75,-19 z m 50.75,19 c 0,0 6.17741,20.18193 21.71875,16.96875 35.0471,-12.69166 53.82415,-16.68556 64.625,-17.03125 -10.64155,-0.73533 -29.67177,-5.16097 -64.71875,-17.375 -15.1017,-3.01879 -21.5625,17.4375 -21.5625,17.4375 -0.0199,-0.003 -0.0426,0.003 -0.0625,0 z m 18.1875,-12.8125 c 0.33455,0.004 0.69745,0.0729 1.0625,0.15625 12.32641,9.80496 19.12584,10.58526 37.65625,12.34375 -18.65055,1.9159 -25.23139,2.69408 -37.6875,12.5625 -3.78548,0.99406 -5.82501,-2.48515 -6.8125,-6.3125 1.24216,0.9 2.75503,1.4375 4.40625,1.4375 4.16559,0 7.5625,-3.39691 7.5625,-7.5625 0,-4.16559 -3.39691,-7.53125 -7.5625,-7.53125 -1.61917,0 -3.11491,0.50658 -4.34375,1.375 0.93403,-3.45403 2.71214,-6.50215 5.71875,-6.46875 z m -87.9375,0.65625 c 0.0296,-0.006 0.071,-0.008 0.125,0 1.62065,0.23933 11.40882,5.15625 12.03125,5.15625 0.64278,0 11.37337,-5.59439 11.8125,-5.125 0.45356,0.48485 -5.125,11.55482 -5.125,12.21875 0,0.64278 5.59439,11.37337 5.125,11.8125 -0.48485,0.45356 -11.58607,-5.125 -12.25,-5.125 -0.64278,0 -11.34212,5.59439 -11.78125,5.125 -0.31546,-0.33724 2.26696,-5.81479 3.875,-9.34375 0.70389,-1.54475 1.21875,-2.73535 1.21875,-2.9375 0,-0.64277 -5.56314,-11.31087 -5.09375,-11.75 0.0152,-0.0142 0.0329,-0.025 0.0625,-0.0312 z m 22.6875,1.25 -10.65625,7.15625 -10.84375,-7.125 7.15625,10.65625 -7.15625,10.8125 10.65625,-7.125 10.84375,7.15625 -7.15625,-10.6875 7.15625,-10.84375 z m -38.65625,5.5625 c 0.3526,-0.0179 0.70045,0 1.0625,0 5.79278,0 10.5,2.32236 10.5,5.21875 0,2.89639 -4.70722,5.25 -10.5,5.25 -5.79278,0 -10.46875,-2.35361 -10.46875,-5.25 0,-2.71536 4.11723,-4.95019 9.40625,-5.21875 z m -25.6875,1.28125 c 4.36085,0 7.90625,1.75707 7.90625,3.9375 0,2.18043 -3.5454,3.96875 -7.90625,3.96875 -4.36085,0 -7.90625,-1.78832 -7.90625,-3.96875 0,-2.18043 3.5454,-3.9375 7.90625,-3.9375 z m -24,0.71875 c 3.57981,0 6.46875,1.42885 6.46875,3.21875 0,1.7899 -2.88894,3.25 -6.46875,3.25 -3.57981,0 -6.46875,-1.4601 -6.46875,-3.25 0,-1.7899 2.88894,-3.21875 6.46875,-3.21875 z"
         style="fill:#000000;fill-opacity:1;stroke:none" />
      <path
         inkscape:connector-curvature="0"
         style="fill:#000000;fill-opacity:1;stroke:none"
         d="m 637.01811,325.28126 c 96.96467,17.65445 200.90419,18.07883 300.125,18.90625 -99.13886,-0.97297 -203.42688,1.61742 -299.96875,18.625 -22.60089,-14.84678 -37.69223,-16.76169 -50.90625,-18.53125 13.13429,-2.20245 28.15558,-4.05415 50.75,-19 z m -50.75,19 c 0,0 -6.17741,20.18193 -21.71875,16.96875 -35.0471,-12.69166 -53.82415,-16.68556 -64.625,-17.03125 10.64155,-0.73533 29.67177,-5.16097 64.71875,-17.375 15.1017,-3.01879 21.5625,17.4375 21.5625,17.4375 0.0199,-0.003 0.0426,0.003 0.0625,0 z m -18.1875,-12.8125 c -0.33455,0.004 -0.69745,0.0729 -1.0625,0.15625 -12.32641,9.80496 -19.12584,10.58526 -37.65625,12.34375 18.65055,1.9159 25.23139,2.69408 37.6875,12.5625 3.78548,0.99406 5.82501,-2.48515 6.8125,-6.3125 -1.24216,0.9 -2.75503,1.4375 -4.40625,1.4375 -4.16559,0 -7.5625,-3.39691 -7.5625,-7.5625 0,-4.16559 3.39691,-7.53125 7.5625,-7.53125 1.61917,0 3.11491,0.50658 4.34375,1.375 -0.93403,-3.45403 -2.71214,-6.50215 -5.71875,-6.46875 z m 87.9375,0.65625 c -0.0296,-0.006 -0.071,-0.008 -0.125,0 -1.62065,0.23933 -11.40882,5.15625 -12.03125,5.15625 -0.64278,0 -11.37337,-5.59439 -11.8125,-5.125 -0.45356,0.48485 5.125,11.55482 5.125,12.21875 0,0.64278 -5.59439,11.37337 -5.125,11.8125 0.48485,0.45356 11.58607,-5.125 12.25,-5.125 0.64278,0 11.34212,5.59439 11.78125,5.125 0.31546,-0.33724 -2.26696,-5.81479 -3.875,-9.34375 -0.70389,-1.54475 -1.21875,-2.73535 -1.21875,-2.9375 0,-0.64277 5.56314,-11.31087 5.09375,-11.75 -0.0151,-0.0142 -0.0329,-0.025 -0.0625,-0.0312 z m -22.6875,1.25 10.65625,7.15625 10.84375,-7.125 -7.15625,10.65625 7.15625,10.8125 -10.65625,-7.125 -10.84375,7.15625 7.15625,-10.6875 -7.15625,-10.84375 z m 38.65625,5.5625 c -0.3526,-0.0179 -0.70045,0 -1.0625,0 -5.79278,0 -10.5,2.32236 -10.5,5.21875 0,2.89639 4.70722,5.25 10.5,5.25 5.79278,0 10.46875,-2.35361 10.46875,-5.25 0,-2.71536 -4.11723,-4.95019 -9.40625,-5.21875 z m 25.6875,1.28125 c -4.36085,0 -7.90625,1.75707 -7.90625,3.9375 0,2.18043 3.5454,3.96875 7.90625,3.96875 4.36085,0 7.90625,-1.78832 7.90625,-3.96875 0,-2.18043 -3.5454,-3.9375 -7.90625,-3.9375 z m 24,0.71875 c -3.57981,0 -6.46875,1.42885 -6.46875,3.21875 0,1.7899 2.88894,3.25 6.46875,3.25 3.57981,0 6.46875,-1.4601 6.46875,-3.25 0,-1.7899 -2.88894,-3.21875 -6.46875,-3.21875 z"
         id="path3884" />
      <path
         inkscape:connector-curvature="0"
         id="path3886"
         d="m 476.11759,323.41667 c -11.42911,0 -20.70092,9.25538 -20.70092,20.68449 0,11.42911 9.27181,20.70092 20.70092,20.70092 11.42911,0 20.68449,-9.27181 20.68449,-20.70092 0,-11.42911 -9.25538,-20.68449 -20.68449,-20.68449 z m 0,7.31104 c 7.39128,0 13.37345,5.98217 13.37345,13.37345 0,7.39128 -5.98217,13.38988 -13.37345,13.38988 -7.39128,0 -13.38988,-5.9986 -13.38988,-13.38988 0,-7.39128 5.9986,-13.37345 13.38988,-13.37345 z"
         style="fill:#000000;fill-opacity:1;stroke:none" />
    </g>
  </g>
</svg>
