<?xml version="1.0" encoding="UTF-8" standalone="no"?>
<!-- Created with Inkscape (http://www.inkscape.org/) -->

<svg
   xmlns:dc="http://purl.org/dc/elements/1.1/"
   xmlns:cc="http://creativecommons.org/ns#"
   xmlns:rdf="http://www.w3.org/1999/02/22-rdf-syntax-ns#"
   xmlns:svg="http://www.w3.org/2000/svg"
   xmlns="http://www.w3.org/2000/svg"
   xmlns:sodipodi="http://sodipodi.sourceforge.net/DTD/sodipodi-0.dtd"
   xmlns:inkscape="http://www.inkscape.org/namespaces/inkscape"
   width="1052.3622047"
   height="744.09448819"
   id="svg2"
   version="1.1"
   inkscape:version="0.48.4 r9939"
   sodipodi:docname="r_e_chop_logo.svg">
  <defs
     id="defs4" />
  <sodipodi:namedview
     id="base"
     pagecolor="#ffffff"
     bordercolor="#666666"
     borderopacity="1.0"
     inkscape:pageopacity="0.0"
     inkscape:pageshadow="2"
     inkscape:zoom="1.0606602"
     inkscape:cx="457.13203"
     inkscape:cy="397.91477"
     inkscape:document-units="px"
     inkscape:current-layer="layer1"
     showgrid="false"
     inkscape:window-width="1545"
     inkscape:window-height="876"
     inkscape:window-x="55"
     inkscape:window-y="24"
     inkscape:window-maximized="1"
     showguides="true"
     inkscape:guide-bbox="true">
    <inkscape:grid
       type="xygrid"
       id="grid3755" />
    <sodipodi:guide
       orientation="-0.70710678,0.70710678"
       position="300,600"
       id="guide3778" />
  </sodipodi:namedview>
  <metadata
     id="metadata7">
    <rdf:RDF>
      <cc:Work
         rdf:about="">
        <dc:format>image/svg+xml</dc:format>
        <dc:type
           rdf:resource="http://purl.org/dc/dcmitype/StillImage" />
        <dc:title></dc:title>
      </cc:Work>
    </rdf:RDF>
  </metadata>
  <g
     inkscape:label="Layer 1"
     inkscape:groupmode="layer"
     id="layer1">
    <path
       style="fill:#000000;fill-opacity:1;stroke:#000000;stroke-width:1;stroke-miterlimit:4;stroke-opacity:1;stroke-dasharray:none"
       d="M 340.65625 110.09375 C 299.29092 110.09375 266 143.38467 266 184.75 L 266 603.4375 C 266 644.80283 299.29092 678.09375 340.65625 678.09375 L 759.34375 678.09375 C 800.70908 678.09375 834 644.80283 834 603.4375 L 834 184.75 C 834 143.38467 800.70908 110.09375 759.34375 110.09375 L 340.65625 110.09375 z M 359.34375 153.125 L 483.5625 153.125 C 508.86785 153.125 529.21875 173.50715 529.21875 198.8125 L 529.21875 590.21875 C 529.21875 615.5241 508.86785 635.875 483.5625 635.875 L 359.34375 635.875 C 334.0384 635.875 313.65625 615.5241 313.65625 590.21875 L 313.65625 198.8125 C 313.65625 173.50715 334.0384 153.125 359.34375 153.125 z M 617.34375 153.125 L 741.5625 153.125 C 766.86785 153.125 787.21875 173.50715 787.21875 198.8125 L 787.21875 590.21875 C 787.21875 615.5241 766.86785 635.875 741.5625 635.875 L 617.34375 635.875 C 592.0384 635.875 571.65625 615.5241 571.65625 590.21875 L 571.65625 198.8125 C 571.65625 173.50715 592.0384 153.125 617.34375 153.125 z "
       id="rect3753" />
    <path
       style="fill:#000000;fill-opacity:1;stroke:#000000;stroke-width:1.11310029;stroke-miterlimit:4;stroke-opacity:1"
       d="m 433.02352,189.24663 c -47.29865,8.01758 -110.30843,53.04231 -110.30843,111.47763 0,58.43532 72.84437,113.75775 127.279,125.12875 96.31956,11.1175 108.65621,-41.12082 98.06532,-110.76071 8.47214,-116.71274 -18.98649,-141.61722 -115.03589,-125.84567 z m 83.26586,142.19583 c -4.71693,58.18913 -16.41239,55.14303 -65.33856,50.11752 -48.92617,-5.02551 -61.06553,-39.55386 -65.09261,-80.84889 -4.02708,-41.29503 19.17045,-57.84717 43.71219,-66.7459 92.65845,-43.66236 92.00242,30.72352 86.71898,97.47727 z"
       inkscape:connector-curvature="0"
       sodipodi:nodetypes="csccccsscc" />
    <path
       style="fill:#000000;fill-opacity:1;stroke:#000000;stroke-width:1.19793451px;stroke-linecap:butt;stroke-linejoin:miter;stroke-opacity:1"
       d="m 423.43072,411.9052 c 0.0806,76.99739 -26.55843,151.82331 -140.17678,183.59713 -17.67549,4.94302 6.02019,45.55001 23.92317,49.59222 91.41876,20.64093 179.50393,-235.07546 179.50393,-235.07546 -0.98463,6.89241 -63.29566,-41.40884 -63.25032,1.88611 z"
       id="path3790"
       inkscape:connector-curvature="0"
       sodipodi:nodetypes="ssscs" />
    <path
       style="fill:#000000;fill-opacity:1;stroke:#000000;stroke-width:1.48843396px;stroke-linecap:butt;stroke-linejoin:miter;stroke-opacity:1"
       d="m 563.10122,195.09822 c 0,0 68.78034,-7.05549 185.24741,-4.18843 22.3337,0.54979 43.10203,89.98638 0.94034,67.01479 C 643.74653,200.4203 564.9819,251.64196 564.9819,251.64196 z"
       id="path3792"
       inkscape:connector-curvature="0"
       sodipodi:nodetypes="csscc" />
    <path
       style="fill:#000000;fill-opacity:1;stroke:#000000;stroke-width:1.48535788px;stroke-linecap:butt;stroke-linejoin:miter;stroke-opacity:1"
       d="m 558.19275,368.49682 c 0,0 80.38301,-11.20643 120.19796,-6.26534 65.09422,8.07828 80.08935,89.37008 0.93905,64.74172 -38.55564,-11.99695 -121.13701,0 -121.13701,0 z"
       id="path3794"
       inkscape:connector-curvature="0"
       sodipodi:nodetypes="csscc" />
    <path
       inkscape:connector-curvature="0"
       id="path3796"
       d="m 553.73048,549.31548 c 0,0 166.56502,55.09449 185.32185,-3.77644 18.24763,-57.27276 80.62513,59.61955 0.94072,60.42294 -61.48625,0.61991 -184.38113,-5.66464 -184.38113,-5.66464 z"
       style="fill:#000000;fill-opacity:1;stroke:#000000;stroke-width:1.41361904px;stroke-linecap:butt;stroke-linejoin:miter;stroke-opacity:1"
       sodipodi:nodetypes="csscc" />
  </g>
</svg>
